<?xml version="1.0" encoding="UTF-8" standalone="no"?>
<!-- Created with Inkscape (http://www.inkscape.org/) -->

<svg
   width="210mm"
   height="297mm"
   viewBox="0 0 210 297"
   version="1.1"
   id="svg1"
   xml:space="preserve"
   inkscape:version="1.4.4 (dcaf3e7, 2026-05-05)"
   sodipodi:docname="NIST_Logo.svg"
   xmlns:inkscape="http://www.inkscape.org/namespaces/inkscape"
   xmlns:sodipodi="http://sodipodi.sourceforge.net/DTD/sodipodi-0.dtd"
   xmlns="http://www.w3.org/2000/svg"
   xmlns:svg="http://www.w3.org/2000/svg"><sodipodi:namedview
     id="namedview1"
     pagecolor="#ffffff"
     bordercolor="#000000"
     borderopacity="0.25"
     inkscape:showpageshadow="2"
     inkscape:pageopacity="0.0"
     inkscape:pagecheckerboard="0"
     inkscape:deskcolor="#d1d1d1"
     inkscape:document-units="mm"
     inkscape:zoom="1.0167041"
     inkscape:cx="336.87285"
     inkscape:cy="531.61978"
     inkscape:window-width="1920"
     inkscape:window-height="1009"
     inkscape:window-x="1912"
     inkscape:window-y="-8"
     inkscape:window-maximized="1"
     inkscape:current-layer="layer1" /><defs
     id="defs1" /><g
     inkscape:label="Layer 1"
     inkscape:groupmode="layer"
     id="layer1"><path
       style="fill:#000000"
       d="m 54.305436,169.2582 c 0,-12.58571 0.03567,-12.91631 1.631773,-15.12246 1.29512,-1.79014 4.193846,-3.31321 6.305727,-3.31321 1.143222,0 3.495518,0.80216 4.545795,1.55017 0.539639,0.38433 5.046056,5.16363 10.01426,10.62066 4.968204,5.45703 9.272101,10.12851 9.564216,10.38106 0.402271,0.34778 0.653531,0.39367 1.035715,0.18913 0.484247,-0.25916 0.504598,-0.7232 0.504598,-11.50554 v -11.23548 h 3.584533 3.584534 l -0.07881,11.8401 -0.0788,11.84011 -0.690749,1.47282 c -1.275008,2.71859 -3.781501,4.49085 -6.644242,4.69792 -1.669838,0.12079 -3.785765,-0.43403 -5.027575,-1.31828 -0.660534,-0.47034 -5.007038,-5.1364 -16.057353,-17.23791 -2.900267,-3.17616 -3.945866,-4.15756 -4.365625,-4.09759 -0.548476,0.0784 -0.552391,0.15018 -0.620942,11.38981 l -0.06899,11.31094 h -3.56903 -3.569035 z m 49.229054,10.8823 c -1.93886,-0.74442 -3.740249,-2.57088 -4.476559,-4.53885 -0.54815,-1.46505 -0.56708,-1.90412 -0.56708,-13.15506 v -11.63942 l 3.463449,0.0738 3.46344,0.0738 -0.0145,11.0379 -0.0145,11.03791 0.57868,0.40532 c 0.50309,0.35238 2.52214,0.40533 15.45632,0.40533 10.34,0 15.07428,-0.0896 15.52237,-0.29376 1.2445,-0.56703 1.59796,-2.34496 0.69452,-3.49349 l -0.53773,-0.68361 -10.9118,-0.0797 -10.91181,-0.0797 -1.76238,-0.86798 c -7.79306,-3.83813 -6.692,-14.90814 1.70515,-17.14352 1.1486,-0.30577 5.90361,-0.37131 27.12349,-0.3739 l 25.73073,-0.003 v 3.57187 3.57188 h -6.08542 -6.08541 v 11.37708 11.37709 h -3.57188 -3.57187 v -11.37709 -11.37708 h -16.25268 -16.25267 l -0.57227,0.72752 c -0.6585,0.83715 -0.58413,2.17981 0.16669,3.00946 0.42364,0.46811 1.00001,0.49647 10.13162,0.49835 10.47518,0.002 12.3944,0.17013 14.39683,1.25998 5.93506,3.23027 6.39063,11.94102 0.81757,15.63246 -2.48036,1.64292 -2.29186,1.62778 -20.06593,1.61261 -15.73083,-0.0134 -16.19571,-0.0284 -17.59636,-0.56616 z"
       id="path1" /></g></svg>
